# xmcd
#
# Track frame offsets: 
#        150
#        14325
#        30078
#        45623
#        55818
#        72873
#        82618
#        94543
#        107388
#        120450
#        130660
#        142400
#        153240
#        172205
#        191815
#        203555
#        214598
#        229708
#        245745
#
# Disc length: 3474 seconds
#
# Revision: 4
# Processed by: cddbd v1.5.2PL0 Copyright (c) Steve Scherf et al.
# Submitted via: ExactAudioCopy v1.0b4
#
DISCID=f50d9013
DTITLE=Various Artist - Gold On Silver - Solid Country Gold
DYEAR=1992
DGENRE=Country
TTITLE0=Glenn Campbell - Rhinestone Cowboy
TTITLE1=Billy Joe Spears - Blanket On The Ground
TTITLE2=Engelbert Humperdinck - Please Release Me
TTITLE3=Dave Dudley - Six Days On The Road
TTITLE4=Kenny Rogers and Sheena Easton - We've Got Tonight
TTITLE5=Ned Miller - From A Jack To A King
TTITLE6=Wanda Jackson - Stand By Your Man
TTITLE7=Dr. Hook - Sharing The Night Together
TTITLE8=Crystal Gayle - Talking In Your Sleep
TTITLE9=Faron Young - Hello Walls
TTITLE10=Anne Murray - Walk Right Back
TTITLE11=Hank Locklin - Send Me The Pillow You Dream On
TTITLE12=Bobby Gentry - Ode To Billy Joe
TTITLE13=Kenny Rogers - Coward Of The County
TTITLE14=Lynn Anderson - You're My Man
TTITLE15=Don Gibson - Oh Lonesome Me
TTITLE16=Juice Newton - Queen Of Hearts
TTITLE17=Ray Charles - Your Cheating Heart
TTITLE18=Jeannie C. Riley - Harper Valley PTA
EXTD=
EXTT0=
EXTT1=
EXTT2=
EXTT3=
EXTT4=
EXTT5=
EXTT6=
EXTT7=
EXTT8=
EXTT9=
EXTT10=
EXTT11=
EXTT12=
EXTT13=
EXTT14=
EXTT15=
EXTT16=
EXTT17=
EXTT18=
PLAYORDER=
